<svg width="18" height="16" viewBox="0 0 18 16" fill="none" xmlns="http://www.w3.org/2000/svg">
<g clip-path="url(#clip0_320_4322)">
<path d="M1.95839 7.13802L11.5227 3.19735C11.7599 3.09701 12.1065 2.95106 12.5626 2.7595C13.0278 2.56794 13.4908 2.37638 13.9514 2.18482C14.4121 1.99326 14.8112 1.82907 15.1487 1.69224C15.4953 1.55541 15.6686 1.48699 15.6686 1.48699C15.6686 1.48699 15.9104 1.44823 16.3938 1.37069C16.8773 1.29315 17.0871 1.60558 17.0232 2.30797C17.0141 2.4448 16.9867 2.66828 16.9411 2.97843C16.8955 3.28857 16.8408 3.65573 16.7769 4.0799C16.7131 4.50407 16.6401 4.97156 16.558 5.48239C16.485 5.99322 16.4075 6.51773 16.3254 7.05592L15.2992 13.5005C15.2992 13.5005 15.2559 13.6647 15.1692 13.9931C15.0825 14.3215 14.8659 14.5268 14.5193 14.6089C14.1635 14.691 13.7576 14.6089 13.3015 14.3626C12.8454 14.1163 12.5672 13.9521 12.4668 13.87C12.4212 13.8426 12.2297 13.7195 11.8922 13.5005C11.5546 13.2816 11.167 13.0239 10.7291 12.7275C10.2913 12.431 9.84428 12.1277 9.38819 11.8176C8.94121 11.4983 8.58546 11.2246 8.32092 10.9966C8.17497 10.878 8.06323 10.7024 7.98569 10.4698C7.90816 10.2372 8.03358 9.97493 8.36197 9.68303C8.72685 9.34552 9.10997 8.99433 9.51133 8.62945C9.90358 8.25545 10.289 7.8883 10.6675 7.52798C11.0461 7.16766 11.4087 6.81875 11.7553 6.48124C12.102 6.15285 12.4075 5.85183 12.6721 5.57817C12.9184 5.33188 13.0575 5.05594 13.0894 4.75036C13.1213 4.44477 12.6265 4.63861 11.6048 5.33188L5.81696 9.2315C5.81696 9.2315 5.65505 9.28623 5.33122 9.39569C5.00739 9.50515 4.53989 9.46411 3.92873 9.27254C3.30844 9.09011 2.70867 8.90083 2.12943 8.70471C1.55019 8.50858 1.26057 8.41052 1.26057 8.41052C1.26057 8.41052 1.16707 8.28054 0.980068 8.02056C0.793069 7.76059 1.11918 7.46641 1.95839 7.13802Z" fill="black"/>
</g>
<defs>
<clipPath id="clip0_320_4322">
<rect width="16.05" height="16" fill="white" transform="matrix(1 0 0 -1 0.97998 16)"/>
</clipPath>
</defs>
</svg>
