<svg width="72" height="60" viewBox="0 0 72 60" fill="none" xmlns="http://www.w3.org/2000/svg">
<path d="M63.8186 58.744V35H71.0506V58.744H63.8186Z" fill="#444444"/>
<path d="M53.3811 58.744V35H60.6131V58.744H53.3811Z" fill="#444444"/>
<path d="M43.0374 58.7441V41.2401H50.2694V58.7441H43.0374Z" fill="#444444"/>
<path d="M46.7893 40.104C45.4666 40.104 44.4106 39.752 43.6213 39.048C42.8319 38.344 42.4373 37.4694 42.4373 36.424C42.4373 35.3787 42.8319 34.504 43.6213 33.8C44.4106 33.096 45.4666 32.744 46.7893 32.744C48.1119 32.744 49.1679 33.0747 49.9573 33.736C50.7466 34.3974 51.1413 35.2507 51.1413 36.296C51.1413 37.4054 50.7466 38.3227 49.9573 39.048C49.1679 39.752 48.1119 40.104 46.7893 40.104Z" fill="#53CA3E"/>
<path d="M8.88522 59.064C7.39189 59.064 5.91989 58.904 4.46922 58.584C3.01855 58.264 1.84522 57.848 0.949219 57.336L2.93322 52.568C3.76522 53.0587 4.72522 53.4427 5.81322 53.72C6.92255 53.9974 7.99989 54.136 9.04522 54.136C9.91989 54.136 10.5066 54.0614 10.8052 53.912C11.1252 53.7627 11.2852 53.56 11.2852 53.304C11.2852 53.048 11.1039 52.8667 10.7412 52.76C10.3786 52.632 9.89855 52.536 9.30122 52.472C8.70389 52.408 8.04255 52.3334 7.31722 52.248C6.61322 52.1414 5.89855 51.992 5.17322 51.8C4.44789 51.608 3.78655 51.32 3.18922 50.936C2.59189 50.552 2.11189 50.04 1.74922 49.4C1.38655 48.7387 1.20522 47.9067 1.20522 46.904C1.20522 45.7947 1.53589 44.792 2.19722 43.896C2.87989 43 3.88255 42.2854 5.20522 41.752C6.54922 41.1974 8.20255 40.92 10.1652 40.92C11.4452 40.92 12.7252 41.0374 14.0052 41.272C15.2852 41.5067 16.3839 41.8694 17.3012 42.36L15.3172 47.128C14.4212 46.6374 13.5359 46.3067 12.6612 46.136C11.8079 45.944 11.0079 45.848 10.2612 45.848C9.34389 45.848 8.71455 45.9334 8.37322 46.104C8.05322 46.2747 7.89322 46.4667 7.89322 46.68C7.89322 46.936 8.07455 47.128 8.43722 47.256C8.79989 47.384 9.27989 47.48 9.87722 47.544C10.4746 47.608 11.1252 47.6934 11.8292 47.8C12.5546 47.8854 13.2692 48.0347 13.9732 48.248C14.6986 48.44 15.3599 48.728 15.9572 49.112C16.5546 49.496 17.0346 50.0187 17.3972 50.68C17.7599 51.32 17.9412 52.1414 17.9412 53.144C17.9412 54.1894 17.6106 55.1707 16.9492 56.088C16.2879 56.984 15.2852 57.7094 13.9412 58.264C12.5972 58.7974 10.9119 59.064 8.88522 59.064Z" fill="#444444"/>
<path d="M8.88522 24.064C7.39189 24.064 5.91989 23.904 4.46922 23.584C3.01855 23.264 1.84522 22.848 0.949219 22.336L2.93322 17.568C3.76522 18.0587 4.72522 18.4427 5.81322 18.72C6.92255 18.9974 7.99989 19.136 9.04522 19.136C9.91989 19.136 10.5066 19.0614 10.8052 18.912C11.1252 18.7627 11.2852 18.56 11.2852 18.304C11.2852 18.048 11.1039 17.8667 10.7412 17.76C10.3786 17.632 9.89855 17.536 9.30122 17.472C8.70389 17.408 8.04255 17.3334 7.31722 17.248C6.61322 17.1414 5.89855 16.992 5.17322 16.8C4.44789 16.608 3.78655 16.32 3.18922 15.936C2.59189 15.552 2.11189 15.04 1.74922 14.4C1.38655 13.7387 1.20522 12.9067 1.20522 11.904C1.20522 10.7947 1.53589 9.79204 2.19722 8.89604C2.87989 8.00004 3.88255 7.28538 5.20522 6.75204C6.54922 6.19738 8.20255 5.92004 10.1652 5.92004C11.4452 5.92004 12.7252 6.03738 14.0052 6.27205C15.2852 6.50671 16.3839 6.86938 17.3012 7.36004L15.3172 12.128C14.4212 11.6374 13.5359 11.3067 12.6612 11.136C11.8079 10.944 11.0079 10.848 10.2612 10.848C9.34389 10.848 8.71455 10.9334 8.37322 11.104C8.05322 11.2747 7.89322 11.4667 7.89322 11.68C7.89322 11.936 8.07455 12.128 8.43722 12.256C8.79989 12.384 9.27989 12.48 9.87722 12.544C10.4746 12.608 11.1252 12.6934 11.8292 12.8C12.5546 12.8854 13.2692 13.0347 13.9732 13.248C14.6986 13.44 15.3599 13.728 15.9572 14.112C16.5546 14.496 17.0346 15.0187 17.3972 15.68C17.7599 16.32 17.9412 17.1414 17.9412 18.144C17.9412 19.1894 17.6106 20.1707 16.9492 21.088C16.2879 21.984 15.2852 22.7094 13.9412 23.264C12.5972 23.7974 10.9119 24.064 8.88522 24.064Z" fill="#444444"/>
<path fill-rule="evenodd" clip-rule="evenodd" d="M23.6509 23.232C24.7816 23.7867 26.0402 24.064 27.4269 24.064C28.7496 24.064 29.9762 23.744 31.1069 23.104C31.5782 22.8334 32.0049 22.504 32.3869 22.1156V23.744H39.2669V6.23999H32.0349V14.464C32.0349 15.3173 31.9176 16.0107 31.6829 16.544C31.4482 17.056 31.1389 17.4293 30.7549 17.664C30.3922 17.8773 29.9976 17.984 29.5709 17.984C28.8669 17.984 28.3122 17.7387 27.9069 17.248C27.5016 16.7573 27.2989 15.8933 27.2989 14.656V6.23999H20.0669V15.904C20.0669 17.8027 20.3869 19.36 21.0269 20.576C21.6669 21.7707 22.5416 22.656 23.6509 23.232ZM32.3869 18.688V22.1156C32.4134 22.0886 32.4397 22.0614 32.4658 22.0339C32.9825 21.4886 33.4149 20.832 33.7629 20.064L32.3869 18.688Z" fill="#444444"/>
<path d="M33.7629 20.064L32.3869 18.688V22.1156C32.4134 22.0886 32.4397 22.0614 32.4658 22.0339C32.9825 21.4886 33.4149 20.832 33.7629 20.064Z" fill="#444444"/>
<path fill-rule="evenodd" clip-rule="evenodd" d="M50.2829 23.104C51.2642 23.744 52.5549 24.064 54.1549 24.064C55.6909 24.064 57.0989 23.7013 58.3789 22.976C59.6589 22.2293 60.6829 21.184 61.4509 19.84C62.2189 18.4747 62.6029 16.8533 62.6029 14.976C62.6029 13.0987 62.2189 11.488 61.4509 10.144C60.6829 8.77867 59.6589 7.73333 58.3789 7.008C57.0989 6.28267 55.6909 5.92 54.1549 5.92C52.6402 5.92 51.3815 6.25067 50.3789 6.912C50.1396 7.06801 49.9156 7.24493 49.7069 7.44277V0H42.4749V23.744H49.3549V22.3075C49.6319 22.6157 49.9412 22.8812 50.2829 23.104ZM49.3549 21.376L49.3869 14.976L49.7069 8.576V7.44277C49.7015 7.44783 49.6962 7.45291 49.6909 7.458C49.0509 8.07 48.5549 8.88 48.2029 9.888C47.7335 11.2107 47.4989 12.9067 47.4989 14.976C47.4989 17.0667 47.7122 18.784 48.1389 20.128C48.4309 21.0041 48.8362 21.7306 49.3549 22.3075V21.376ZM53.8669 18.048C53.4402 18.304 52.9602 18.432 52.4269 18.432C51.8935 18.432 51.4135 18.304 50.9869 18.048C50.5602 17.792 50.2189 17.408 49.9629 16.896C49.7069 16.3627 49.5789 15.7227 49.5789 14.976C49.5789 14.208 49.7069 13.5787 49.9629 13.088C50.2189 12.576 50.5602 12.192 50.9869 11.936C51.4135 11.68 51.8935 11.552 52.4269 11.552C52.9602 11.552 53.4402 11.68 53.8669 11.936C54.2935 12.192 54.6349 12.576 54.8909 13.088C55.1469 13.5787 55.2749 14.208 55.2749 14.976C55.2749 15.7227 55.1469 16.3627 54.8909 16.896C54.6349 17.408 54.2935 17.792 53.8669 18.048Z" fill="#444444"/>
<path d="M47.4989 14.976C47.4989 17.0667 47.7122 18.784 48.1389 20.128C48.4309 21.0041 48.8362 21.7306 49.3549 22.3075V21.376L49.3869 14.976L49.7069 8.576V7.44277L49.6909 7.458C49.0509 8.07 48.5549 8.88 48.2029 9.888C47.7335 11.2107 47.4989 12.9067 47.4989 14.976Z" fill="#444444"/>
<path fill-rule="evenodd" clip-rule="evenodd" d="M27.3631 54.6075V58.744H20.1311V35H27.3631V46.3172L32.3871 41.24H40.9311L33.6991 48.8191L32.4191 47.192L27.9711 52.664L28.5288 53.3704L27.3631 54.6075ZM28.5288 53.3704L32.7711 58.744H41.5071L33.6991 48.8191L32.9311 49.624L29.3151 52.536L28.5288 53.3704Z" fill="#444444"/>
<path d="M29.3151 52.536L32.9311 49.624L33.6991 48.8191L32.4191 47.192L27.9711 52.664L28.5288 53.3704L29.3151 52.536Z" fill="#444444"/>
</svg>
