<svg width="56" height="42" viewBox="0 0 56 42" fill="none" xmlns="http://www.w3.org/2000/svg">
<path d="M8.132 18.384C6.724 18.384 5.364 18.224 4.052 17.904C2.74 17.584 1.66 17.168 0.812 16.656L2.636 12.528C3.436 12.992 4.324 13.368 5.3 13.656C6.292 13.928 7.252 14.064 8.18 14.064C8.724 14.064 9.148 14.032 9.452 13.968C9.772 13.888 10.004 13.784 10.148 13.656C10.292 13.512 10.364 13.344 10.364 13.152C10.364 12.848 10.196 12.608 9.86 12.432C9.524 12.256 9.076 12.112 8.516 12C7.972 11.872 7.372 11.744 6.716 11.616C6.06 11.472 5.396 11.288 4.724 11.064C4.068 10.84 3.46 10.544 2.9 10.176C2.356 9.808 1.916 9.328 1.58 8.736C1.244 8.128 1.076 7.376 1.076 6.48C1.076 5.44 1.364 4.496 1.94 3.648C2.532 2.784 3.404 2.096 4.556 1.584C5.724 1.072 7.172 0.816 8.9 0.816C10.036 0.816 11.156 0.935999 12.26 1.176C13.364 1.416 14.356 1.784 15.236 2.28L13.532 6.384C12.7 5.968 11.892 5.656 11.108 5.448C10.34 5.24 9.588 5.136 8.852 5.136C8.308 5.136 7.876 5.184 7.556 5.28C7.236 5.376 7.004 5.504 6.86 5.664C6.732 5.824 6.668 6 6.668 6.192C6.668 6.48 6.836 6.712 7.172 6.888C7.508 7.048 7.948 7.184 8.492 7.296C9.052 7.408 9.66 7.528 10.316 7.656C10.988 7.784 11.652 7.96 12.308 8.184C12.964 8.408 13.564 8.704 14.108 9.072C14.668 9.44 15.116 9.92 15.452 10.512C15.788 11.104 15.956 11.84 15.956 12.72C15.956 13.744 15.66 14.688 15.068 15.552C14.492 16.4 13.628 17.088 12.476 17.616C11.324 18.128 9.876 18.384 8.132 18.384ZM25.6814 18.384C23.1054 18.384 21.0974 17.688 19.6574 16.296C18.2174 14.904 17.4974 12.952 17.4974 10.44V1.2H23.1614V10.272C23.1614 11.552 23.3934 12.464 23.8574 13.008C24.3214 13.536 24.9454 13.8 25.7294 13.8C26.5294 13.8 27.1534 13.536 27.6014 13.008C28.0654 12.464 28.2974 11.552 28.2974 10.272V1.2H33.8654V10.44C33.8654 12.952 33.1454 14.904 31.7054 16.296C30.2654 17.688 28.2574 18.384 25.6814 18.384ZM36.4618 18V1.2H45.4378C47.7578 1.2 49.4698 1.616 50.5738 2.448C51.6778 3.264 52.2298 4.312 52.2298 5.592C52.2298 6.44 51.9898 7.2 51.5098 7.872C51.0458 8.528 50.3658 9.048 49.4698 9.432C48.5738 9.816 47.4698 10.008 46.1578 10.008L46.6378 8.712C47.9498 8.712 49.0778 8.896 50.0218 9.264C50.9818 9.632 51.7178 10.168 52.2298 10.872C52.7578 11.56 53.0218 12.392 53.0218 13.368C53.0218 14.824 52.4138 15.96 51.1978 16.776C49.9978 17.592 48.2378 18 45.9178 18H36.4618ZM42.0298 14.04H45.4378C46.0618 14.04 46.5258 13.928 46.8298 13.704C47.1498 13.48 47.3098 13.152 47.3098 12.72C47.3098 12.288 47.1498 11.96 46.8298 11.736C46.5258 11.512 46.0618 11.4 45.4378 11.4H41.6458V7.656H44.6698C45.3098 7.656 45.7738 7.552 46.0618 7.344C46.3658 7.12 46.5178 6.808 46.5178 6.408C46.5178 5.992 46.3658 5.68 46.0618 5.472C45.7738 5.264 45.3098 5.16 44.6698 5.16H42.0298V14.04ZM5.27 41.24C4.39 41.24 3.54 41.14 2.72 40.94C1.9 40.74 1.225 40.48 0.695 40.16L1.835 37.58C2.335 37.87 2.89 38.105 3.5 38.285C4.12 38.455 4.72 38.54 5.3 38.54C5.64 38.54 5.905 38.52 6.095 38.48C6.295 38.43 6.44 38.365 6.53 38.285C6.62 38.195 6.665 38.09 6.665 37.97C6.665 37.78 6.56 37.63 6.35 37.52C6.14 37.41 5.86 37.32 5.51 37.25C5.17 37.17 4.795 37.09 4.385 37.01C3.975 36.92 3.56 36.805 3.14 36.665C2.73 36.525 2.35 36.34 2 36.11C1.66 35.88 1.385 35.58 1.175 35.21C0.965 34.83 0.86 34.36 0.86 33.8C0.86 33.15 1.04 32.56 1.4 32.03C1.77 31.49 2.315 31.06 3.035 30.74C3.765 30.42 4.67 30.26 5.75 30.26C6.46 30.26 7.16 30.335 7.85 30.485C8.54 30.635 9.16 30.865 9.71 31.175L8.645 33.74C8.125 33.48 7.62 33.285 7.13 33.155C6.65 33.025 6.18 32.96 5.72 32.96C5.38 32.96 5.11 32.99 4.91 33.05C4.71 33.11 4.565 33.19 4.475 33.29C4.395 33.39 4.355 33.5 4.355 33.62C4.355 33.8 4.46 33.945 4.67 34.055C4.88 34.155 5.155 34.24 5.495 34.31C5.845 34.38 6.225 34.455 6.635 34.535C7.055 34.615 7.47 34.725 7.88 34.865C8.29 35.005 8.665 35.19 9.005 35.42C9.355 35.65 9.635 35.95 9.845 36.32C10.055 36.69 10.16 37.15 10.16 37.7C10.16 38.34 9.975 38.93 9.605 39.47C9.245 40 8.705 40.43 7.985 40.76C7.265 41.08 6.36 41.24 5.27 41.24ZM14.3784 38.75L14.1834 34.865L18.1434 30.5H21.9984L17.5584 35.39L15.5934 37.4L14.3784 38.75ZM11.2134 41V30.5H14.6934V41H11.2134ZM18.1134 41L15.0234 36.92L17.3184 34.49L22.2084 41H18.1134ZM22.6831 41V30.5H26.2231V41H22.6831ZM27.9273 41V30.5H31.4673V38.255H36.2073V41H27.9273ZM37.1851 41V30.5H40.7251V38.255H45.4651V41H37.1851ZM50.3579 41.24C49.4779 41.24 48.6279 41.14 47.8079 40.94C46.9879 40.74 46.3129 40.48 45.7829 40.16L46.9229 37.58C47.4229 37.87 47.9779 38.105 48.5879 38.285C49.2079 38.455 49.8079 38.54 50.3879 38.54C50.7279 38.54 50.9929 38.52 51.1829 38.48C51.3829 38.43 51.5279 38.365 51.6179 38.285C51.7079 38.195 51.7529 38.09 51.7529 37.97C51.7529 37.78 51.6479 37.63 51.4379 37.52C51.2279 37.41 50.9479 37.32 50.5979 37.25C50.2579 37.17 49.8829 37.09 49.4729 37.01C49.0629 36.92 48.6479 36.805 48.2279 36.665C47.8179 36.525 47.4379 36.34 47.0879 36.11C46.7479 35.88 46.4729 35.58 46.2629 35.21C46.0529 34.83 45.9479 34.36 45.9479 33.8C45.9479 33.15 46.1279 32.56 46.4879 32.03C46.8579 31.49 47.4029 31.06 48.1229 30.74C48.8529 30.42 49.7579 30.26 50.8379 30.26C51.5479 30.26 52.2479 30.335 52.9379 30.485C53.6279 30.635 54.2479 30.865 54.7979 31.175L53.7329 33.74C53.2129 33.48 52.7079 33.285 52.2179 33.155C51.7379 33.025 51.2679 32.96 50.8079 32.96C50.4679 32.96 50.1979 32.99 49.9979 33.05C49.7979 33.11 49.6529 33.19 49.5629 33.29C49.4829 33.39 49.4429 33.5 49.4429 33.62C49.4429 33.8 49.5479 33.945 49.7579 34.055C49.9679 34.155 50.2429 34.24 50.5829 34.31C50.9329 34.38 51.3129 34.455 51.7229 34.535C52.1429 34.615 52.5579 34.725 52.9679 34.865C53.3779 35.005 53.7529 35.19 54.0929 35.42C54.4429 35.65 54.7229 35.95 54.9329 36.32C55.1429 36.69 55.2479 37.15 55.2479 37.7C55.2479 38.34 55.0629 38.93 54.6929 39.47C54.3329 40 53.7929 40.43 53.0729 40.76C52.3529 41.08 51.4479 41.24 50.3579 41.24Z" fill="#444444"/>
</svg>
