<svg width="16" height="24" viewBox="0 0 16 24" fill="none" xmlns="http://www.w3.org/2000/svg">
<path d="M16 12.0469C16 10.9323 15.7917 9.89062 15.375 8.92188C14.9583 7.94271 14.388 7.08854 13.6641 6.35938C12.9401 5.63021 12.0885 5.05208 11.1094 4.625C10.1406 4.20833 9.10417 4 8 4C6.89583 4 5.85938 4.20833 4.89062 4.625C3.91146 5.05208 3.0599 5.63021 2.33594 6.35938C1.61198 7.08854 1.04167 7.94271 0.625 8.92188C0.208333 9.89062 0 10.9323 0 12.0469C0 13.0573 0.171875 14.0104 0.515625 14.9062C0.859375 15.8021 1.33333 16.6016 1.9375 17.3047C2.54167 18.0078 3.25521 18.5938 4.07812 19.0625C4.90104 19.5417 5.79167 19.8542 6.75 20V14.375H4.71875V12.0469H6.75V10.2812C6.75 9.27083 7.02604 8.49479 7.57812 7.95312C8.13021 7.41146 8.85938 7.14062 9.76562 7.14062C10.2031 7.14062 10.612 7.16667 10.9922 7.21875C11.3724 7.27083 11.5625 7.29688 11.5625 7.29688V9.28125H10.5469C10.0573 9.28125 9.71875 9.41146 9.53125 9.67188C9.34375 9.93229 9.25 10.224 9.25 10.5469V12.0469H11.4688L11.1094 14.375H9.25V20C10.2083 19.8542 11.099 19.5417 11.9219 19.0625C12.7448 18.5938 13.4583 18.0078 14.0625 17.3047C14.6667 16.6016 15.1406 15.8021 15.4844 14.9062C15.8281 14.0104 16 13.0573 16 12.0469Z" fill="black"/>
</svg>
