<svg width="16" height="24" viewBox="0 0 16 24" fill="none" xmlns="http://www.w3.org/2000/svg">
<path d="M8 4C9.08333 4 9.79688 4.0026 10.1406 4.00781C10.4844 4.01302 10.8698 4.02604 11.2969 4.04688C11.724 4.06771 12.0911 4.10938 12.3984 4.17188C12.7057 4.23438 12.9844 4.31771 13.2344 4.42188C13.5052 4.52604 13.7552 4.65104 13.9844 4.79688C14.2135 4.94271 14.4375 5.125 14.6562 5.34375C14.875 5.5625 15.0573 5.78646 15.2031 6.01562C15.349 6.24479 15.474 6.49479 15.5781 6.76562C15.6823 7.01562 15.7656 7.29427 15.8281 7.60156C15.8906 7.90885 15.9323 8.27604 15.9531 8.70312C15.974 9.13021 15.987 9.51562 15.9922 9.85938C15.9974 10.2031 16 10.9167 16 12C16 13.0833 15.9974 13.7969 15.9922 14.1406C15.987 14.4844 15.974 14.8698 15.9531 15.2969C15.9323 15.724 15.8906 16.0911 15.8281 16.3984C15.7656 16.7057 15.6823 16.9844 15.5781 17.2344C15.474 17.5052 15.349 17.7552 15.2031 17.9844C15.0573 18.2135 14.875 18.4375 14.6562 18.6562C14.4375 18.875 14.2135 19.0573 13.9844 19.2031C13.7552 19.349 13.5052 19.474 13.2344 19.5781C12.9844 19.6823 12.7057 19.7656 12.3984 19.8281C12.0911 19.8906 11.724 19.9323 11.2969 19.9531C10.8698 19.974 10.4844 19.987 10.1406 19.9922C9.79688 19.9974 9.08333 20 8 20C6.91667 20 6.20312 19.9974 5.85938 19.9922C5.51562 19.987 5.13021 19.974 4.70312 19.9531C4.27604 19.9323 3.90885 19.8906 3.60156 19.8281C3.29427 19.7656 3.01562 19.6823 2.76562 19.5781C2.49479 19.474 2.24479 19.349 2.01562 19.2031C1.78646 19.0573 1.5625 18.875 1.34375 18.6562C1.125 18.4375 0.942708 18.2135 0.796875 17.9844C0.651042 17.7552 0.526042 17.5052 0.421875 17.2344C0.317708 16.9844 0.234375 16.7057 0.171875 16.3984C0.109375 16.0911 0.0677083 15.724 0.046875 15.2969C0.0260417 14.8698 0.0130208 14.4844 0.0078125 14.1406C0.00260417 13.7969 0 13.0833 0 12C0 10.9167 0.00260417 10.2031 0.0078125 9.85938C0.0130208 9.51562 0.0260417 9.13021 0.046875 8.70312C0.0677083 8.27604 0.109375 7.90885 0.171875 7.60156C0.234375 7.29427 0.317708 7.01562 0.421875 6.76562C0.526042 6.49479 0.651042 6.24479 0.796875 6.01562C0.942708 5.78646 1.125 5.5625 1.34375 5.34375C1.5625 5.125 1.78646 4.94271 2.01562 4.79688C2.24479 4.65104 2.49479 4.52604 2.76562 4.42188C3.01562 4.31771 3.29427 4.23438 3.60156 4.17188C3.90885 4.10938 4.27604 4.06771 4.70312 4.04688C5.13021 4.02604 5.51562 4.01302 5.85938 4.00781C6.20312 4.0026 6.91667 4 8 4ZM8 5.4375C6.92708 5.4375 6.22656 5.4401 5.89844 5.44531C5.57031 5.45052 5.19271 5.46354 4.76562 5.48438C4.38021 5.50521 4.07292 5.54427 3.84375 5.60156C3.61458 5.65885 3.42708 5.71354 3.28125 5.76562C3.09375 5.83854 2.92969 5.92188 2.78906 6.01562C2.64844 6.10938 2.50521 6.22396 2.35938 6.35938C2.22396 6.50521 2.10938 6.64844 2.01562 6.78906C1.92188 6.92969 1.83854 7.09375 1.76562 7.28125C1.71354 7.42708 1.65885 7.61458 1.60156 7.84375C1.54427 8.07292 1.50521 8.38021 1.48438 8.76562C1.46354 9.19271 1.45052 9.57031 1.44531 9.89844C1.4401 10.2266 1.4375 10.9271 1.4375 12C1.4375 13.0729 1.4401 13.7734 1.44531 14.1016C1.45052 14.4297 1.46354 14.8073 1.48438 15.2344C1.50521 15.6198 1.54427 15.9271 1.60156 16.1562C1.65885 16.3854 1.71354 16.5729 1.76562 16.7188C1.83854 16.9062 1.92188 17.0703 2.01562 17.2109C2.10938 17.3516 2.22396 17.4948 2.35938 17.6406C2.50521 17.776 2.64844 17.8906 2.78906 17.9844C2.92969 18.0781 3.09375 18.1615 3.28125 18.2344C3.42708 18.2865 3.61458 18.3411 3.84375 18.3984C4.07292 18.4557 4.38021 18.4948 4.76562 18.5156C5.19271 18.5365 5.57031 18.5495 5.89844 18.5547C6.22656 18.5599 6.92708 18.5625 8 18.5625C9.07292 18.5625 9.77344 18.5599 10.1016 18.5547C10.4297 18.5495 10.8073 18.5365 11.2344 18.5156C11.6198 18.4948 11.9271 18.4557 12.1562 18.3984C12.3854 18.3411 12.5729 18.2865 12.7188 18.2344C12.9062 18.1615 13.0703 18.0781 13.2109 17.9844C13.3516 17.8906 13.4948 17.776 13.6406 17.6406C13.776 17.4948 13.8906 17.3516 13.9844 17.2109C14.0781 17.0703 14.1615 16.9062 14.2344 16.7188C14.2865 16.5729 14.3411 16.3854 14.3984 16.1562C14.4557 15.9271 14.4948 15.6198 14.5156 15.2344C14.5365 14.8073 14.5495 14.4297 14.5547 14.1016C14.5599 13.7734 14.5625 13.0729 14.5625 12C14.5625 10.9271 14.5599 10.2266 14.5547 9.89844C14.5495 9.57031 14.5365 9.19271 14.5156 8.76562C14.4948 8.38021 14.4557 8.07292 14.3984 7.84375C14.3411 7.61458 14.2865 7.42708 14.2344 7.28125C14.1615 7.09375 14.0781 6.92969 13.9844 6.78906C13.8906 6.64844 13.776 6.50521 13.6406 6.35938C13.4948 6.22396 13.3516 6.10938 13.2109 6.01562C13.0703 5.92188 12.9062 5.83854 12.7188 5.76562C12.5729 5.71354 12.3854 5.65885 12.1562 5.60156C11.9271 5.54427 11.6198 5.50521 11.2344 5.48438C10.8073 5.46354 10.4297 5.45052 10.1016 5.44531C9.77344 5.4401 9.07292 5.4375 8 5.4375ZM8 7.92188C8.5625 7.92188 9.09375 8.02604 9.59375 8.23438C10.0833 8.45312 10.513 8.7474 10.8828 9.11719C11.2526 9.48698 11.5469 9.91667 11.7656 10.4062C11.974 10.9062 12.0781 11.4375 12.0781 12C12.0781 12.5625 11.974 13.0885 11.7656 13.5781C11.5469 14.0781 11.2526 14.513 10.8828 14.8828C10.513 15.2526 10.0833 15.5417 9.59375 15.75C9.09375 15.9688 8.5625 16.0781 8 16.0781C7.4375 16.0781 6.91146 15.9688 6.42188 15.75C5.92188 15.5417 5.48698 15.2526 5.11719 14.8828C4.7474 14.513 4.45833 14.0781 4.25 13.5781C4.03125 13.0885 3.92188 12.5625 3.92188 12C3.92188 11.4375 4.03125 10.9062 4.25 10.4062C4.45833 9.91667 4.7474 9.48698 5.11719 9.11719C5.48698 8.7474 5.92188 8.45312 6.42188 8.23438C6.91146 8.02604 7.4375 7.92188 8 7.92188ZM8 14.6406C8.72917 14.6406 9.35417 14.3828 9.875 13.8672C10.3958 13.3516 10.6562 12.7292 10.6562 12C10.6562 11.2708 10.3958 10.6458 9.875 10.125C9.35417 9.60417 8.72917 9.34375 8 9.34375C7.27083 9.34375 6.64844 9.60417 6.13281 10.125C5.61719 10.6458 5.35938 11.2708 5.35938 12C5.35938 12.7292 5.61719 13.3516 6.13281 13.8672C6.64844 14.3828 7.27083 14.6406 8 14.6406ZM13.1875 7.6875C13.1875 7.96875 13.0938 8.20833 12.9062 8.40625C12.7188 8.60417 12.4948 8.70312 12.2344 8.70312C11.974 8.70312 11.7526 8.60417 11.5703 8.40625C11.388 8.20833 11.2969 7.96875 11.2969 7.6875C11.2969 7.40625 11.388 7.16406 11.5703 6.96094C11.7526 6.75781 11.974 6.65625 12.2344 6.65625C12.4948 6.65625 12.7188 6.75781 12.9062 6.96094C13.0938 7.16406 13.1875 7.40625 13.1875 7.6875Z" fill="black"/>
</svg>
