<svg width="12" height="16" viewBox="0 0 12 16" fill="none" xmlns="http://www.w3.org/2000/svg">
<g clip-path="url(#clip0_320_4336)">
<path d="M10.3897 3.99145C10.3441 3.96409 10.2985 3.93901 10.2529 3.91621C10.2073 3.89341 10.1617 3.86376 10.1161 3.82728C9.99753 3.74519 9.88124 3.65399 9.76723 3.55366C9.65322 3.45333 9.54605 3.34388 9.44573 3.22531C9.19034 2.92433 9.00565 2.63018 8.89164 2.34288C8.77763 2.05558 8.70695 1.80247 8.67958 1.58358C8.65222 1.41028 8.63854 1.26891 8.63854 1.15946C8.63854 1.05001 8.6431 0.995288 8.65222 0.995288H6.34011V10.2985C6.34011 10.3623 6.33783 10.4239 6.33327 10.4831C6.32871 10.5424 6.32643 10.604 6.32643 10.6678C6.32643 10.677 6.32643 10.6838 6.32643 10.6884C6.32643 10.6929 6.32643 10.6998 6.32643 10.7089C6.32643 10.718 6.32643 10.7226 6.32643 10.7226C6.32643 10.7226 6.32643 10.7271 6.32643 10.7362C6.31731 10.9095 6.28539 11.0737 6.23066 11.2288C6.17594 11.3838 6.10753 11.5343 6.02544 11.6802C5.94336 11.8171 5.84303 11.9447 5.72446 12.0633C5.60589 12.1819 5.4782 12.2822 5.34139 12.3643C5.19546 12.4464 5.0404 12.5102 4.87623 12.5558C4.71206 12.6014 4.54788 12.6242 4.38371 12.6242C3.84559 12.6242 3.38499 12.4259 3.00192 12.0291C2.61884 11.6324 2.42731 11.1512 2.42731 10.5858C2.42731 10.0203 2.61884 9.53687 3.00192 9.13556C3.38499 8.73424 3.84559 8.53359 4.38371 8.53359C4.48404 8.53359 4.58437 8.54271 4.68469 8.56095C4.78502 8.57919 4.88535 8.60655 4.98568 8.64304V6.19412C4.69381 6.14851 4.39967 6.13939 4.10325 6.16675C3.80682 6.19412 3.51268 6.24884 3.22081 6.33093C2.93807 6.42213 2.66673 6.53842 2.40679 6.6798C2.14685 6.82117 1.90287 6.99218 1.67485 7.19284C1.47419 7.37525 1.29178 7.57363 1.1276 7.78797C0.963428 8.0023 0.817496 8.22804 0.689806 8.46518C0.635081 8.55639 0.541594 8.77301 0.409343 9.11504C0.277092 9.45706 0.197285 9.91538 0.169923 10.49C0.160802 10.8092 0.188165 11.1193 0.25201 11.4203C0.315855 11.7213 0.37058 11.9402 0.416183 12.077V12.0907C0.443546 12.1728 0.511951 12.3324 0.6214 12.5695C0.730849 12.8067 0.872221 13.0438 1.04552 13.2809C1.19145 13.4725 1.34878 13.6503 1.51751 13.8145C1.68625 13.9787 1.86182 14.1292 2.04424 14.266V14.2523L2.05792 14.266C2.61428 14.6582 3.14557 14.8794 3.65177 14.9295C4.15797 14.9797 4.41107 15.0048 4.41107 15.0048C4.52052 14.9956 4.73942 14.9751 5.06777 14.9432C5.39611 14.9113 5.76094 14.795 6.16226 14.5943C6.61829 14.3754 6.96944 14.136 7.2157 13.8761C7.46196 13.6161 7.58509 13.4862 7.58509 13.4862C7.75839 13.2855 7.90888 13.0734 8.03657 12.85C8.16426 12.6265 8.27371 12.3917 8.36492 12.1454C8.47437 11.8627 8.54961 11.5708 8.59066 11.2698C8.6317 10.9688 8.65222 10.7499 8.65222 10.6131V5.67423C8.66134 5.68335 8.72975 5.73124 8.85744 5.81788C8.98513 5.90453 9.04897 5.94785 9.04897 5.94785C9.04897 5.94785 9.17438 6.01854 9.4252 6.15991C9.67602 6.30128 10.0112 6.43126 10.4308 6.54982C10.7318 6.63191 11.0419 6.68664 11.3611 6.714C11.6803 6.74136 11.8399 6.75504 11.8399 6.75504V4.36084C11.694 4.37909 11.4888 4.36084 11.2243 4.30612C10.9598 4.2514 10.6816 4.14651 10.3897 3.99145Z" fill="black"/>
</g>
<defs>
<clipPath id="clip0_320_4336">
<rect width="11.67" height="16" fill="white" transform="matrix(1 0 0 -1 0.169922 16)"/>
</clipPath>
</defs>
</svg>
