<svg width="18" height="16" viewBox="0 0 18 16" fill="none" xmlns="http://www.w3.org/2000/svg">
<g clip-path="url(#clip0_320_4327)">
<path d="M1.35664 1.91147C1.12861 2.13951 0.95074 2.40403 0.82304 2.70503C0.704462 3.01516 0.615528 3.3823 0.556239 3.80644C0.49695 4.23059 0.462745 4.72086 0.453624 5.27727C0.444502 5.8428 0.439941 6.49042 0.439941 7.22013V8.77989C0.439941 9.5096 0.444502 10.1572 0.453624 10.7227C0.462745 11.2792 0.49695 11.7694 0.556239 12.1936C0.615528 12.6177 0.704462 12.9849 0.82304 13.295C0.95074 13.596 1.12861 13.8605 1.35664 14.0885C1.58468 14.3166 1.8492 14.4945 2.1502 14.6222C2.46033 14.7407 2.82747 14.8297 3.25161 14.889C3.67576 14.9482 4.16604 14.9824 4.72244 14.9916C5.28797 15.0007 5.93559 15.0052 6.6653 15.0052H11.3309C12.0697 15.0052 12.7174 15.0007 13.2738 14.9916C13.8393 14.9824 14.3341 14.9482 14.7583 14.889C15.1824 14.8297 15.545 14.7407 15.846 14.6222C16.1561 14.4945 16.4252 14.3166 16.6532 14.0885C16.8813 13.8605 17.0546 13.596 17.1732 13.295C17.3009 12.9849 17.3921 12.6177 17.4468 12.1936C17.5015 11.7694 17.538 11.2792 17.5563 10.7227C17.5654 10.1572 17.5699 9.5096 17.5699 8.77989V7.22013C17.5699 6.49042 17.5654 5.8428 17.5563 5.27727C17.538 4.72086 17.5015 4.23059 17.4468 3.80644C17.3921 3.3823 17.3009 3.01516 17.1732 2.70503C17.0546 2.40403 16.8813 2.13951 16.6532 1.91147C16.4252 1.68344 16.1561 1.50557 15.846 1.37787C15.545 1.25929 15.1824 1.17036 14.7583 1.11107C14.3341 1.05178 13.8393 1.01757 13.2738 1.00845C12.7174 0.999331 12.0697 0.99477 11.3309 0.99477H6.6653C5.93559 0.99477 5.28797 0.999331 4.72244 1.00845C4.16604 1.01757 3.67576 1.05178 3.25161 1.11107C2.82747 1.17036 2.46033 1.25929 2.1502 1.37787C1.8492 1.50557 1.58468 1.68344 1.35664 1.91147ZM6.63794 4.98995C6.70179 4.93522 6.77248 4.90101 6.85001 4.88733C6.92754 4.87365 7.00279 4.88961 7.07576 4.93522C7.3038 5.06292 7.65953 5.25447 8.14297 5.50987C8.61728 5.77439 9.1144 6.04803 9.63432 6.33079C10.1542 6.61356 10.6468 6.88264 11.112 7.13804C11.5863 7.39344 11.9238 7.57586 12.1245 7.68532C12.1792 7.72181 12.2248 7.76741 12.2613 7.82214C12.2978 7.87687 12.316 7.93616 12.316 8.00001C12.316 8.06386 12.2978 8.12315 12.2613 8.17788C12.2248 8.23261 12.1792 8.27821 12.1245 8.3147L7.07576 11.0648C7.00279 11.1104 6.92754 11.1264 6.85001 11.1127C6.77248 11.099 6.70179 11.0648 6.63794 11.0101L6.58321 10.9417C6.54672 10.9143 6.51936 10.8778 6.50112 10.8322C6.48287 10.7866 6.47375 10.741 6.47375 10.6954V5.30463C6.47375 5.25903 6.48287 5.21342 6.50112 5.16781C6.51936 5.12221 6.54672 5.08572 6.58321 5.05836L6.63794 4.98995Z" fill="black"/>
</g>
<defs>
<clipPath id="clip0_320_4327">
<rect width="17.13" height="16" fill="white" transform="matrix(1 0 0 -1 0.439941 16)"/>
</clipPath>
</defs>
</svg>
